<svg width="100%" height="100%" viewBox="0 0 648 2066" fill="none" xmlns="http://www.w3.org/2000/svg">
<mask id="path-1-outside-1_260_2" maskUnits="userSpaceOnUse" x="-109.383" y="-49.3824" width="953.92" height="2130.09" fill="black">
<rect fill="white" x="-109.383" y="-49.3824" width="953.92" height="2130.09"/>
<path class="svg-item" d="M309.08 2052.28C291.772 2034.86 290.793 2010.85 306.511 1989.62C307.075 1988.86 307.538 1988.24 307.932 1987.72C309.003 1986.13 310.047 1984.56 311.073 1982.97C313.895 1978.62 316.565 1974.21 319.06 1969.86C324.66 1960.08 329.823 1949.74 334.398 1939.1C336.015 1935.35 337.552 1931.54 339.013 1927.75C339.013 1927.75 339.013 1927.75 339.018 1927.73C339.018 1927.73 339.028 1927.69 339.033 1927.66C339.253 1926.66 339.834 1924.97 340.832 1922.02C341.453 1920.15 342.049 1918.39 342.262 1917.73C345.574 1907.01 348.45 1895.72 350.81 1884.22C352.822 1874.42 354.521 1864.14 355.822 1853.64C356.394 1849.13 356.884 1844.66 357.274 1840.34C357.295 1839.71 357.345 1838.95 357.379 1838.05L357.556 1834.59C357.667 1832.49 357.783 1830.37 357.871 1828.27C358.726 1807.28 358.165 1785.5 356.222 1763.55C355.26 1752.63 353.95 1741.49 352.316 1730.45C351.868 1727.39 351.354 1724.31 350.857 1721.26C350.521 1719.18 350.162 1717.1 349.826 1715.02C349.818 1714.95 349.793 1714.85 349.786 1714.78C349.791 1714.75 349.773 1714.73 349.761 1714.68C349.441 1713.16 349.138 1711.67 348.84 1710.16C348.53 1708.6 348.219 1707.04 347.887 1705.47C343.342 1683.78 337.792 1663.06 331.395 1643.86C328.218 1634.32 324.722 1624.85 321.027 1615.76C319.344 1611.63 317.527 1607.48 315.77 1603.47L315.136 1602C314.811 1601.26 313.929 1599.43 313.554 1598.69C312.697 1596.97 311.835 1595.26 310.973 1593.56C301.018 1574.2 289.615 1556.23 277.113 1540.19L275.794 1538.54C275.449 1538.1 275.117 1537.7 274.864 1537.36C274.602 1537.07 274.326 1536.73 273.989 1536.35C273.246 1535.49 272.502 1534.63 272.24 1534.34C268.909 1530.59 265.448 1526.92 261.974 1523.4C254.391 1515.77 246.428 1508.58 238.274 1502.06L227.906 1493.92C213.651 1507.96 198.565 1520.47 182.698 1531.33C154.421 1550.69 82.9404 1590.68 30.187 1544.1C12.9369 1528.86 3.09067 1506.78 2.48476 1481.92C1.81994 1454.24 12.7725 1426.67 31.8138 1408.15C54.538 1386.04 86.7664 1373.75 125.006 1372.65C148.95 1371.96 173.269 1376.04 197.297 1384.75C199.503 1385.53 201.469 1386.25 202.877 1386.74C205.166 1383.32 207.441 1379.76 209.676 1376.17C214.647 1368.19 219.475 1359.8 224.038 1351.24C232.774 1334.82 240.996 1317.03 248.417 1298.32C248.844 1297.22 249.299 1296.11 249.753 1295C251.023 1291.87 252.357 1288.66 253.342 1285.45C253.371 1285.32 253.44 1285.22 253.514 1285.09C254.164 1283.09 254.87 1280.93 255.197 1279.98C258.459 1270.43 261.637 1260.42 264.617 1250.25C275.354 1213.67 284.048 1174.29 291.942 1126.34C299.729 1079.08 304.659 1034.53 307.011 990.144C311.852 899.154 306.921 804.969 291.881 702.219C288.864 681.541 285.554 660.495 282.37 640.154C270.891 566.972 258.998 491.321 257.548 415.909C255.391 301.338 275.459 205.48 317.239 130.999C342.424 86.0941 374.491 51.7046 409.964 31.5466C448.157 9.83953 493.971 0.1637 542.489 3.56217C566.519 5.24592 588.825 8.51081 610.683 13.4969C622.274 16.1588 633.069 24.1511 639.536 34.8557C645.231 44.2943 647.128 54.882 644.943 64.83C644.821 65.3864 644.704 65.9205 644.537 66.4671C638.062 90.7528 614.813 105.593 591.624 100.292C579.677 97.5517 569.048 95.4978 559.132 94.0204C554.185 93.2841 549.182 92.6988 544.495 92.1595C544.362 92.1302 544.223 92.1232 544.085 92.1161L542.38 92.0216C539.617 91.8581 536.848 91.7168 534.088 91.6472C523.421 91.358 513.033 91.7131 503.196 92.7489C502.529 92.8124 500.399 93.1613 498.149 93.5303C494.132 94.188 492.218 94.5142 491.244 94.487C487.038 95.4764 482.148 96.7121 477.279 98.279C472.612 99.7737 468.02 101.565 463.747 103.286C463.567 103.363 463.391 103.418 463.233 103.5L461.78 104.277C460.435 104.985 459.085 105.715 457.757 106.45C453.281 108.989 448.78 111.85 444.36 114.985C442.431 116.335 440.559 117.743 438.682 119.174C438.26 119.501 437.838 119.829 437.416 120.156C437.153 120.401 436.807 120.699 436.425 121.058C434.187 123.389 431.91 125.689 429.642 127.943C424.887 132.708 419.976 137.648 415.586 142.983C413.519 145.492 411.381 148.218 409.112 151.219C408.905 151.524 408.662 151.89 408.349 152.358C407.605 153.408 406.623 154.802 406.158 155.539C404.511 158.047 402.903 160.587 401.336 163.159C395.904 172.067 390.741 181.664 385.94 191.738C383.897 196.048 381.813 200.653 379.784 205.433C378.676 208.035 377.59 210.643 376.549 213.26L376.097 214.467C374.936 217.525 374.236 219.331 373.747 220.39C373.676 220.608 373.624 220.736 373.61 220.803C365.964 242.452 359.739 266.233 355.072 291.523C353.085 302.377 351.359 313.639 349.979 325.023C349.202 331.431 348.566 337.94 347.973 344.038C347.949 344.36 347.913 344.632 347.881 344.881C347.851 345.551 347.813 346.359 347.751 347.279C347.666 348.94 347.559 350.596 347.452 352.252C347.341 354.141 347.229 356.029 347.118 357.917C345.919 381.542 345.864 406.654 347.003 432.589C349.974 500.753 360.732 569.25 371.149 635.48C376.302 668.314 381.63 702.26 385.962 735.754C399.092 837.431 400.796 942.805 391.101 1048.9C381.33 1155.65 362.039 1246.47 332.141 1326.55C318.372 1363.44 301.558 1397.09 282.115 1427L297.121 1437.27C306.449 1443.66 315.022 1450.72 322.541 1458.23C377.608 1513.17 416.522 1593.78 435.11 1691.31C450.207 1770.54 450.564 1843.16 436.261 1908.3C430.309 1935.41 421.816 1961.24 410.784 1985.67C401.602 2006.02 389.275 2026.36 372.003 2049.68C365.968 2057.82 355.642 2063 343.671 2063.87C330.398 2064.83 317.146 2060.38 309.102 2052.29L309.08 2052.28ZM329.979 1325.77C359.811 1245.89 379.058 1155.26 388.807 1048.72C398.518 942.772 396.792 837.603 383.7 736.074C379.385 702.607 374.051 668.683 368.893 635.871C358.469 569.57 347.699 501.023 344.735 432.721C343.588 406.714 343.641 381.508 344.854 357.817C344.943 355.924 345.06 354.013 345.193 352.129C345.3 350.473 345.407 348.817 345.487 347.178C345.487 346.968 345.509 346.763 345.53 346.558C345.393 346.015 345.474 345.006 345.598 343.167C345.653 342.386 345.701 341.743 345.95 341.355C346.475 335.988 347.042 330.327 347.722 324.784C349.112 313.355 350.826 302.044 352.845 291.15C357.623 265.139 364.079 240.732 372.003 218.561C372.125 218.214 372.253 217.846 372.417 217.415C372.479 217.242 372.585 217.079 372.73 216.947C373.214 215.701 373.707 214.409 373.99 213.655L374.473 212.408C375.542 209.773 376.61 207.138 377.74 204.541C379.774 199.738 381.863 195.112 383.938 190.762C388.754 180.621 393.981 170.945 399.45 161.975C401.022 159.381 402.657 156.824 404.309 154.294C404.446 154.091 404.621 153.826 404.828 153.521C404.872 153.321 404.911 153.143 405.039 152.984C405.699 152.103 406.204 151.397 406.63 150.838C409.179 147.408 411.579 144.343 413.897 141.539C418.351 136.125 423.316 131.15 428.103 126.346C429.656 124.797 431.214 123.226 432.777 121.633C432.761 121.28 432.906 120.938 433.192 120.698C434.903 119.278 435.875 118.464 436.477 118.06C436.785 117.825 437.066 117.606 437.375 117.371C439.257 115.918 441.178 114.497 443.112 113.125C447.609 109.96 452.169 107.042 456.699 104.468C457.341 104.095 458 103.75 458.637 103.4C458.686 103.178 458.801 102.97 459.401 102.682L459.406 102.659C459.406 102.659 459.613 102.565 459.865 102.48C460.28 102.291 460.843 102.065 461.613 101.744C462.131 101.508 462.645 101.294 462.938 101.125L463.015 101.096C463.2 100.996 463.37 100.964 463.558 100.958C467.701 99.3018 472.135 97.5927 476.653 96.1354C482.498 94.2695 488.411 92.8383 493.101 91.7687C493.37 91.7111 493.689 91.6411 494.034 91.5538C494.106 91.5462 494.182 91.5163 494.254 91.5087C494.6 91.4213 494.951 91.5218 495.211 91.7188C496.108 91.5658 497.027 91.4176 497.874 91.2771C500.267 90.8929 502.325 90.5515 503.042 90.4756C512.973 89.4371 523.46 89.057 534.238 89.3707C536.208 89.4299 538.172 89.5114 540.132 89.6152C540.29 89.5332 540.505 89.5104 540.903 89.5045L540.913 89.46C541.091 89.4991 544.329 89.8368 545.298 89.8863C545.458 89.8982 545.587 89.9498 545.721 89.9791C550.18 90.4917 554.906 91.063 559.559 91.758C569.519 93.2452 580.193 95.3089 592.212 98.0413C614.198 103.079 636.268 88.9359 642.43 65.8645C645.05 56.0587 643.368 45.4483 637.673 36.0096C631.514 25.8159 621.284 18.2275 610.27 15.6926C588.529 10.7086 566.334 7.46818 542.421 5.78661C494.362 2.4191 448.993 11.9826 411.175 33.4687C376.072 53.4281 344.306 87.5104 319.315 132.062C299.303 167.745 284.294 208.376 274.349 253.666C263.643 302.426 258.814 356.607 259.933 415.78C261.372 491.025 273.23 566.623 284.706 639.71C287.891 660.052 291.2 681.097 294.24 701.78C309.29 804.696 314.236 899.024 309.384 990.175C307.012 1034.65 302.062 1079.29 294.283 1126.62C286.364 1174.68 277.678 1214.14 266.899 1250.8C263.91 1261.01 260.727 1271.05 257.454 1280.64C257.072 1281.74 256.184 1284.51 255.458 1286.76C255.078 1287.95 254.799 1288.8 254.568 1289.43C254.482 1289.71 254.426 1289.86 254.416 1289.91L254.371 1289.9C254.231 1290.22 254.133 1290.45 254.01 1290.59C253.347 1292.33 252.64 1294.07 251.942 1295.76C251.492 1296.85 251.038 1297.96 250.611 1299.06C243.153 1317.83 234.912 1335.71 226.116 1352.19C221.521 1360.79 216.684 1369.22 211.68 1377.24C209.27 1381.1 206.821 1384.92 204.361 1388.58C204.361 1388.58 204.357 1388.61 204.352 1388.63C204.283 1388.73 204.209 1388.85 204.108 1388.99C204.098 1389.04 204.066 1389.08 204.034 1389.12C204.034 1389.12 203.987 1389.22 203.923 1389.3C203.67 1389.71 203.32 1390.24 202.843 1390.93C202.397 1391.58 202.079 1392.07 201.786 1392.45C201.68 1392.61 201.611 1392.72 201.579 1392.75C201.429 1392.91 201.311 1393.02 201.215 1393.14C201.21 1393.16 201.178 1393.2 201.151 1393.22C189.585 1408.92 177.053 1423.29 163.883 1435.89C163.7 1436.09 144.665 1455 118.916 1469.01C107.317 1476.26 92.6775 1484.29 89.1649 1480.96C87.4879 1479.35 88.1427 1476.37 91.2956 1471.25C100.348 1456.58 129.622 1458.6 130.863 1458.69C131.046 1458.71 131.192 1458.78 131.333 1458.89C149.659 1446.81 162.127 1434.43 162.282 1434.26C175.371 1421.71 187.834 1407.44 199.326 1391.86C199.656 1391.42 200.441 1390.29 201.121 1389.32C201.217 1389.2 201.291 1389.08 201.387 1388.96C201.461 1388.83 201.557 1388.71 201.631 1388.59C200.263 1388.13 198.514 1387.49 196.592 1386.78C172.827 1378.16 148.797 1374.14 125.135 1374.83C87.4811 1375.91 55.7933 1387.97 33.4832 1409.69C14.8881 1427.76 4.18856 1454.72 4.85181 1481.76C5.43387 1505.98 15.0093 1527.5 31.7715 1542.3C83.3335 1587.82 153.659 1548.42 181.497 1529.36C245.184 1485.77 296.572 1415.34 330.043 1325.69L329.979 1325.77ZM127.196 1460.94C119.256 1460.88 99.7803 1461.82 93.162 1472.53C91.4662 1475.26 90.818 1476.93 90.5933 1477.96C90.3489 1479.07 90.6338 1479.37 90.6512 1479.39C92.5437 1481.18 103.979 1475.53 116.656 1467.72C116.688 1467.68 116.715 1467.67 116.77 1467.63C116.878 1467.56 116.982 1467.51 117.113 1467.45C120.436 1465.38 123.856 1463.19 127.196 1460.94ZM343.49 2061.61C354.799 2060.78 364.511 2055.96 370.151 2048.34C387.322 2025.16 399.575 2004.95 408.678 1984.74C445.987 1902.04 454.13 1803.45 432.85 1691.72C414.347 1594.65 375.645 1514.47 320.906 1459.83C313.462 1452.41 305.03 1445.45 295.804 1439.13L280.815 1428.89C265.303 1452.47 248.142 1473.69 229.528 1492.27L239.68 1500.22C247.896 1506.78 255.938 1514.03 263.579 1521.73C267.069 1525.27 270.571 1528.98 273.941 1532.75C274.129 1532.95 274.553 1533.47 275.056 1534.04C275.175 1534.14 275.311 1534.26 275.443 1534.41C275.443 1534.41 275.477 1534.46 275.517 1534.49C275.802 1534.79 276.112 1535.19 276.536 1535.7C276.959 1536.21 277.292 1536.61 277.522 1536.94C277.545 1536.95 277.562 1536.97 277.557 1537C277.666 1537.14 277.731 1537.27 277.795 1537.4L278.874 1538.75C291.468 1554.91 302.94 1572.99 312.96 1592.48C313.809 1594.13 314.649 1595.83 315.493 1597.51C315.493 1597.51 315.506 1597.56 315.528 1597.56C315.523 1597.59 315.563 1597.62 315.58 1597.65L317.165 1600.84C317.165 1600.84 317.249 1601.09 317.269 1601.21L317.826 1602.5C319.578 1606.53 321.418 1610.69 323.096 1614.83C326.826 1623.98 330.339 1633.48 333.528 1643.06C339.955 1662.35 345.53 1683.17 350.082 1704.93C350.415 1706.49 350.725 1708.05 351.031 1709.64C351.181 1710.44 351.353 1711.25 351.509 1712.03C351.764 1712.46 351.885 1713.18 352.088 1714.28C352.291 1715.37 352.428 1716.13 352.348 1716.6C352.576 1718 352.805 1719.4 353.033 1720.81C353.547 1723.88 354.062 1726.96 354.504 1730.04C356.151 1741.13 357.474 1752.32 358.425 1763.28C360.371 1785.33 360.93 1807.22 360.078 1828.31C359.985 1830.44 359.874 1832.54 359.758 1834.66L359.583 1837.79C359.643 1837.94 359.653 1838.11 359.636 1838.29C359.588 1838.93 359.498 1840.2 359.448 1841.17C359.415 1841.53 359.408 1841.88 359.372 1842.15C359.352 1842.24 359.365 1842.29 359.355 1842.34C359.311 1842.54 359.272 1842.71 359.215 1842.86C358.866 1846.47 358.453 1850.16 357.99 1853.86C356.679 1864.4 354.966 1874.75 352.939 1884.62C350.559 1896.2 347.669 1907.56 344.342 1918.35C344.124 1919.03 343.545 1920.82 342.898 1922.7C342.647 1923.42 342.405 1924.2 342.145 1924.96C342.212 1925.19 342.203 1925.44 342.127 1925.68L342.117 1925.73C341.906 1926.26 341.726 1926.76 341.567 1927.17C339.949 1931.46 338.215 1935.74 336.397 1939.98C331.78 1950.71 326.602 1961.12 320.96 1970.98C318.461 1975.35 315.736 1979.79 312.905 1984.19C312.27 1985.17 311.64 1986.13 310.982 1987.1C310.948 1987.26 310.847 1987.4 310.769 1987.55C310.769 1987.55 310.754 1987.61 310.668 1987.69C310.525 1987.91 310.36 1988.13 310.19 1988.37C309.68 1989.1 308.973 1990.09 308.606 1990.59C308.505 1990.73 308.387 1990.85 308.256 1990.91C293.267 2011.16 294.17 2034.03 310.613 2050.61C318.218 2058.26 330.778 2062.46 343.411 2061.55L343.49 2061.61Z"/>
</mask>
<path class="svg-item" d="M309.08 2052.28C291.772 2034.86 290.793 2010.85 306.511 1989.62C307.075 1988.86 307.538 1988.24 307.932 1987.72C309.003 1986.13 310.047 1984.56 311.073 1982.97C313.895 1978.62 316.565 1974.21 319.06 1969.86C324.66 1960.08 329.823 1949.74 334.398 1939.1C336.015 1935.35 337.552 1931.54 339.013 1927.75C339.013 1927.75 339.013 1927.75 339.018 1927.73C339.018 1927.73 339.028 1927.69 339.033 1927.66C339.253 1926.66 339.834 1924.97 340.832 1922.02C341.453 1920.15 342.049 1918.39 342.262 1917.73C345.574 1907.01 348.45 1895.72 350.81 1884.22C352.822 1874.42 354.521 1864.14 355.822 1853.64C356.394 1849.13 356.884 1844.66 357.274 1840.34C357.295 1839.71 357.345 1838.95 357.379 1838.05L357.556 1834.59C357.667 1832.49 357.783 1830.37 357.871 1828.27C358.726 1807.28 358.165 1785.5 356.222 1763.55C355.26 1752.63 353.95 1741.49 352.316 1730.45C351.868 1727.39 351.354 1724.31 350.857 1721.26C350.521 1719.18 350.162 1717.1 349.826 1715.02C349.818 1714.95 349.793 1714.85 349.786 1714.78C349.791 1714.75 349.773 1714.73 349.761 1714.68C349.441 1713.16 349.138 1711.67 348.84 1710.16C348.53 1708.6 348.219 1707.04 347.887 1705.47C343.342 1683.78 337.792 1663.06 331.395 1643.86C328.218 1634.32 324.722 1624.85 321.027 1615.76C319.344 1611.63 317.527 1607.48 315.77 1603.47L315.136 1602C314.811 1601.26 313.929 1599.43 313.554 1598.69C312.697 1596.97 311.835 1595.26 310.973 1593.56C301.018 1574.2 289.615 1556.23 277.113 1540.19L275.794 1538.54C275.449 1538.1 275.117 1537.7 274.864 1537.36C274.602 1537.07 274.326 1536.73 273.989 1536.35C273.246 1535.49 272.502 1534.63 272.24 1534.34C268.909 1530.59 265.448 1526.92 261.974 1523.4C254.391 1515.77 246.428 1508.58 238.274 1502.06L227.906 1493.92C213.651 1507.96 198.565 1520.47 182.698 1531.33C154.421 1550.69 82.9404 1590.68 30.187 1544.1C12.9369 1528.86 3.09067 1506.78 2.48476 1481.92C1.81994 1454.24 12.7725 1426.67 31.8138 1408.15C54.538 1386.04 86.7664 1373.75 125.006 1372.65C148.95 1371.96 173.269 1376.04 197.297 1384.75C199.503 1385.53 201.469 1386.25 202.877 1386.74C205.166 1383.32 207.441 1379.76 209.676 1376.17C214.647 1368.19 219.475 1359.8 224.038 1351.24C232.774 1334.82 240.996 1317.03 248.417 1298.32C248.844 1297.22 249.299 1296.11 249.753 1295C251.023 1291.87 252.357 1288.66 253.342 1285.45C253.371 1285.32 253.44 1285.22 253.514 1285.09C254.164 1283.09 254.87 1280.93 255.197 1279.98C258.459 1270.43 261.637 1260.42 264.617 1250.25C275.354 1213.67 284.048 1174.29 291.942 1126.34C299.729 1079.08 304.659 1034.53 307.011 990.144C311.852 899.154 306.921 804.969 291.881 702.219C288.864 681.541 285.554 660.495 282.37 640.154C270.891 566.972 258.998 491.321 257.548 415.909C255.391 301.338 275.459 205.48 317.239 130.999C342.424 86.0941 374.491 51.7046 409.964 31.5466C448.157 9.83953 493.971 0.1637 542.489 3.56217C566.519 5.24592 588.825 8.51081 610.683 13.4969C622.274 16.1588 633.069 24.1511 639.536 34.8557C645.231 44.2943 647.128 54.882 644.943 64.83C644.821 65.3864 644.704 65.9205 644.537 66.4671C638.062 90.7528 614.813 105.593 591.624 100.292C579.677 97.5517 569.048 95.4978 559.132 94.0204C554.185 93.2841 549.182 92.6988 544.495 92.1595C544.362 92.1302 544.223 92.1232 544.085 92.1161L542.38 92.0216C539.617 91.8581 536.848 91.7168 534.088 91.6472C523.421 91.358 513.033 91.7131 503.196 92.7489C502.529 92.8124 500.399 93.1613 498.149 93.5303C494.132 94.188 492.218 94.5142 491.244 94.487C487.038 95.4764 482.148 96.7121 477.279 98.279C472.612 99.7737 468.02 101.565 463.747 103.286C463.567 103.363 463.391 103.418 463.233 103.5L461.78 104.277C460.435 104.985 459.085 105.715 457.757 106.45C453.281 108.989 448.78 111.85 444.36 114.985C442.431 116.335 440.559 117.743 438.682 119.174C438.26 119.501 437.838 119.829 437.416 120.156C437.153 120.401 436.807 120.699 436.425 121.058C434.187 123.389 431.91 125.689 429.642 127.943C424.887 132.708 419.976 137.648 415.586 142.983C413.519 145.492 411.381 148.218 409.112 151.219C408.905 151.524 408.662 151.89 408.349 152.358C407.605 153.408 406.623 154.802 406.158 155.539C404.511 158.047 402.903 160.587 401.336 163.159C395.904 172.067 390.741 181.664 385.94 191.738C383.897 196.048 381.813 200.653 379.784 205.433C378.676 208.035 377.59 210.643 376.549 213.26L376.097 214.467C374.936 217.525 374.236 219.331 373.747 220.39C373.676 220.608 373.624 220.736 373.61 220.803C365.964 242.452 359.739 266.233 355.072 291.523C353.085 302.377 351.359 313.639 349.979 325.023C349.202 331.431 348.566 337.94 347.973 344.038C347.949 344.36 347.913 344.632 347.881 344.881C347.851 345.551 347.813 346.359 347.751 347.279C347.666 348.94 347.559 350.596 347.452 352.252C347.341 354.141 347.229 356.029 347.118 357.917C345.919 381.542 345.864 406.654 347.003 432.589C349.974 500.753 360.732 569.25 371.149 635.48C376.302 668.314 381.63 702.26 385.962 735.754C399.092 837.431 400.796 942.805 391.101 1048.9C381.33 1155.65 362.039 1246.47 332.141 1326.55C318.372 1363.44 301.558 1397.09 282.115 1427L297.121 1437.27C306.449 1443.66 315.022 1450.72 322.541 1458.23C377.608 1513.17 416.522 1593.78 435.11 1691.31C450.207 1770.54 450.564 1843.16 436.261 1908.3C430.309 1935.41 421.816 1961.24 410.784 1985.67C401.602 2006.02 389.275 2026.36 372.003 2049.68C365.968 2057.82 355.642 2063 343.671 2063.87C330.398 2064.83 317.146 2060.38 309.102 2052.29L309.08 2052.28ZM329.979 1325.77C359.811 1245.89 379.058 1155.26 388.807 1048.72C398.518 942.772 396.792 837.603 383.7 736.074C379.385 702.607 374.051 668.683 368.893 635.871C358.469 569.57 347.699 501.023 344.735 432.721C343.588 406.714 343.641 381.508 344.854 357.817C344.943 355.924 345.06 354.013 345.193 352.129C345.3 350.473 345.407 348.817 345.487 347.178C345.487 346.968 345.509 346.763 345.53 346.558C345.393 346.015 345.474 345.006 345.598 343.167C345.653 342.386 345.701 341.743 345.95 341.355C346.475 335.988 347.042 330.327 347.722 324.784C349.112 313.355 350.826 302.044 352.845 291.15C357.623 265.139 364.079 240.732 372.003 218.561C372.125 218.214 372.253 217.846 372.417 217.415C372.479 217.242 372.585 217.079 372.73 216.947C373.214 215.701 373.707 214.409 373.99 213.655L374.473 212.408C375.542 209.773 376.61 207.138 377.74 204.541C379.774 199.738 381.863 195.112 383.938 190.762C388.754 180.621 393.981 170.945 399.45 161.975C401.022 159.381 402.657 156.824 404.309 154.294C404.446 154.091 404.621 153.826 404.828 153.521C404.872 153.321 404.911 153.143 405.039 152.984C405.699 152.103 406.204 151.397 406.63 150.838C409.179 147.408 411.579 144.343 413.897 141.539C418.351 136.125 423.316 131.15 428.103 126.346C429.656 124.797 431.214 123.226 432.777 121.633C432.761 121.28 432.906 120.938 433.192 120.698C434.903 119.278 435.875 118.464 436.477 118.06C436.785 117.825 437.066 117.606 437.375 117.371C439.257 115.918 441.178 114.497 443.112 113.125C447.609 109.96 452.169 107.042 456.699 104.468C457.341 104.095 458 103.75 458.637 103.4C458.686 103.178 458.801 102.97 459.401 102.682L459.406 102.659C459.406 102.659 459.613 102.565 459.865 102.48C460.28 102.291 460.843 102.065 461.613 101.744C462.131 101.508 462.645 101.294 462.938 101.125L463.015 101.096C463.2 100.996 463.37 100.964 463.558 100.958C467.701 99.3018 472.135 97.5927 476.653 96.1354C482.498 94.2695 488.411 92.8383 493.101 91.7687C493.37 91.7111 493.689 91.6411 494.034 91.5538C494.106 91.5462 494.182 91.5163 494.254 91.5087C494.6 91.4213 494.951 91.5218 495.211 91.7188C496.108 91.5658 497.027 91.4176 497.874 91.2771C500.267 90.8929 502.325 90.5515 503.042 90.4756C512.973 89.4371 523.46 89.057 534.238 89.3707C536.208 89.4299 538.172 89.5114 540.132 89.6152C540.29 89.5332 540.505 89.5104 540.903 89.5045L540.913 89.46C541.091 89.4991 544.329 89.8368 545.298 89.8863C545.458 89.8982 545.587 89.9498 545.721 89.9791C550.18 90.4917 554.906 91.063 559.559 91.758C569.519 93.2452 580.193 95.3089 592.212 98.0413C614.198 103.079 636.268 88.9359 642.43 65.8645C645.05 56.0587 643.368 45.4483 637.673 36.0096C631.514 25.8159 621.284 18.2275 610.27 15.6926C588.529 10.7086 566.334 7.46818 542.421 5.78661C494.362 2.4191 448.993 11.9826 411.175 33.4687C376.072 53.4281 344.306 87.5104 319.315 132.062C299.303 167.745 284.294 208.376 274.349 253.666C263.643 302.426 258.814 356.607 259.933 415.78C261.372 491.025 273.23 566.623 284.706 639.71C287.891 660.052 291.2 681.097 294.24 701.78C309.29 804.696 314.236 899.024 309.384 990.175C307.012 1034.65 302.062 1079.29 294.283 1126.62C286.364 1174.68 277.678 1214.14 266.899 1250.8C263.91 1261.01 260.727 1271.05 257.454 1280.64C257.072 1281.74 256.184 1284.51 255.458 1286.76C255.078 1287.95 254.799 1288.8 254.568 1289.43C254.482 1289.71 254.426 1289.86 254.416 1289.91L254.371 1289.9C254.231 1290.22 254.133 1290.45 254.01 1290.59C253.347 1292.33 252.64 1294.07 251.942 1295.76C251.492 1296.85 251.038 1297.96 250.611 1299.06C243.153 1317.83 234.912 1335.71 226.116 1352.19C221.521 1360.79 216.684 1369.22 211.68 1377.24C209.27 1381.1 206.821 1384.92 204.361 1388.58C204.361 1388.58 204.357 1388.61 204.352 1388.63C204.283 1388.73 204.209 1388.85 204.108 1388.99C204.098 1389.04 204.066 1389.08 204.034 1389.12C204.034 1389.12 203.987 1389.22 203.923 1389.3C203.67 1389.71 203.32 1390.24 202.843 1390.93C202.397 1391.58 202.079 1392.07 201.786 1392.45C201.68 1392.61 201.611 1392.72 201.579 1392.75C201.429 1392.91 201.311 1393.02 201.215 1393.14C201.21 1393.16 201.178 1393.2 201.151 1393.22C189.585 1408.92 177.053 1423.29 163.883 1435.89C163.7 1436.09 144.665 1455 118.916 1469.01C107.317 1476.26 92.6775 1484.29 89.1649 1480.96C87.4879 1479.35 88.1427 1476.37 91.2956 1471.25C100.348 1456.58 129.622 1458.6 130.863 1458.69C131.046 1458.71 131.192 1458.78 131.333 1458.89C149.659 1446.81 162.127 1434.43 162.282 1434.26C175.371 1421.71 187.834 1407.44 199.326 1391.86C199.656 1391.42 200.441 1390.29 201.121 1389.32C201.217 1389.2 201.291 1389.08 201.387 1388.96C201.461 1388.83 201.557 1388.71 201.631 1388.59C200.263 1388.13 198.514 1387.49 196.592 1386.78C172.827 1378.16 148.797 1374.14 125.135 1374.83C87.4811 1375.91 55.7933 1387.97 33.4832 1409.69C14.8881 1427.76 4.18856 1454.72 4.85181 1481.76C5.43387 1505.98 15.0093 1527.5 31.7715 1542.3C83.3335 1587.82 153.659 1548.42 181.497 1529.36C245.184 1485.77 296.572 1415.34 330.043 1325.69L329.979 1325.77ZM127.196 1460.94C119.256 1460.88 99.7803 1461.82 93.162 1472.53C91.4662 1475.26 90.818 1476.93 90.5933 1477.96C90.3489 1479.07 90.6338 1479.37 90.6512 1479.39C92.5437 1481.18 103.979 1475.53 116.656 1467.72C116.688 1467.68 116.715 1467.67 116.77 1467.63C116.878 1467.56 116.982 1467.51 117.113 1467.45C120.436 1465.38 123.856 1463.19 127.196 1460.94ZM343.49 2061.61C354.799 2060.78 364.511 2055.96 370.151 2048.34C387.322 2025.16 399.575 2004.95 408.678 1984.74C445.987 1902.04 454.13 1803.45 432.85 1691.72C414.347 1594.65 375.645 1514.47 320.906 1459.83C313.462 1452.41 305.03 1445.45 295.804 1439.13L280.815 1428.89C265.303 1452.47 248.142 1473.69 229.528 1492.27L239.68 1500.22C247.896 1506.78 255.938 1514.03 263.579 1521.73C267.069 1525.27 270.571 1528.98 273.941 1532.75C274.129 1532.95 274.553 1533.47 275.056 1534.04C275.175 1534.14 275.311 1534.26 275.443 1534.41C275.443 1534.41 275.477 1534.46 275.517 1534.49C275.802 1534.79 276.112 1535.19 276.536 1535.7C276.959 1536.21 277.292 1536.61 277.522 1536.94C277.545 1536.95 277.562 1536.97 277.557 1537C277.666 1537.14 277.731 1537.27 277.795 1537.4L278.874 1538.75C291.468 1554.91 302.94 1572.99 312.96 1592.48C313.809 1594.13 314.649 1595.83 315.493 1597.51C315.493 1597.51 315.506 1597.56 315.528 1597.56C315.523 1597.59 315.563 1597.62 315.58 1597.65L317.165 1600.84C317.165 1600.84 317.249 1601.09 317.269 1601.21L317.826 1602.5C319.578 1606.53 321.418 1610.69 323.096 1614.83C326.826 1623.98 330.339 1633.48 333.528 1643.06C339.955 1662.35 345.53 1683.17 350.082 1704.93C350.415 1706.49 350.725 1708.05 351.031 1709.64C351.181 1710.44 351.353 1711.25 351.509 1712.03C351.764 1712.46 351.885 1713.18 352.088 1714.28C352.291 1715.37 352.428 1716.13 352.348 1716.6C352.576 1718 352.805 1719.4 353.033 1720.81C353.547 1723.88 354.062 1726.96 354.504 1730.04C356.151 1741.13 357.474 1752.32 358.425 1763.28C360.371 1785.33 360.93 1807.22 360.078 1828.31C359.985 1830.44 359.874 1832.54 359.758 1834.66L359.583 1837.79C359.643 1837.94 359.653 1838.11 359.636 1838.29C359.588 1838.93 359.498 1840.2 359.448 1841.17C359.415 1841.53 359.408 1841.88 359.372 1842.15C359.352 1842.24 359.365 1842.29 359.355 1842.34C359.311 1842.54 359.272 1842.71 359.215 1842.86C358.866 1846.47 358.453 1850.16 357.99 1853.86C356.679 1864.4 354.966 1874.75 352.939 1884.62C350.559 1896.2 347.669 1907.56 344.342 1918.35C344.124 1919.03 343.545 1920.82 342.898 1922.7C342.647 1923.42 342.405 1924.2 342.145 1924.96C342.212 1925.19 342.203 1925.44 342.127 1925.68L342.117 1925.73C341.906 1926.26 341.726 1926.76 341.567 1927.17C339.949 1931.46 338.215 1935.74 336.397 1939.98C331.78 1950.71 326.602 1961.12 320.96 1970.98C318.461 1975.35 315.736 1979.79 312.905 1984.19C312.27 1985.17 311.64 1986.13 310.982 1987.1C310.948 1987.26 310.847 1987.4 310.769 1987.55C310.769 1987.55 310.754 1987.61 310.668 1987.69C310.525 1987.91 310.36 1988.13 310.19 1988.37C309.68 1989.1 308.973 1990.09 308.606 1990.59C308.505 1990.73 308.387 1990.85 308.256 1990.91C293.267 2011.16 294.17 2034.03 310.613 2050.61C318.218 2058.26 330.778 2062.46 343.411 2061.55L343.49 2061.61Z" fill="black"/>
<path class="svg-item" d="M309.08 2052.28C291.772 2034.86 290.793 2010.85 306.511 1989.62C307.075 1988.86 307.538 1988.24 307.932 1987.72C309.003 1986.13 310.047 1984.56 311.073 1982.97C313.895 1978.62 316.565 1974.21 319.06 1969.86C324.66 1960.08 329.823 1949.74 334.398 1939.1C336.015 1935.35 337.552 1931.54 339.013 1927.75C339.013 1927.75 339.013 1927.75 339.018 1927.73C339.018 1927.73 339.028 1927.69 339.033 1927.66C339.253 1926.66 339.834 1924.97 340.832 1922.02C341.453 1920.15 342.049 1918.39 342.262 1917.73C345.574 1907.01 348.45 1895.72 350.81 1884.22C352.822 1874.42 354.521 1864.14 355.822 1853.64C356.394 1849.13 356.884 1844.66 357.274 1840.34C357.295 1839.71 357.345 1838.95 357.379 1838.05L357.556 1834.59C357.667 1832.49 357.783 1830.37 357.871 1828.27C358.726 1807.28 358.165 1785.5 356.222 1763.55C355.26 1752.63 353.95 1741.49 352.316 1730.45C351.868 1727.39 351.354 1724.31 350.857 1721.26C350.521 1719.18 350.162 1717.1 349.826 1715.02C349.818 1714.95 349.793 1714.85 349.786 1714.78C349.791 1714.75 349.773 1714.73 349.761 1714.68C349.441 1713.16 349.138 1711.67 348.84 1710.16C348.53 1708.6 348.219 1707.04 347.887 1705.47C343.342 1683.78 337.792 1663.06 331.395 1643.86C328.218 1634.32 324.722 1624.85 321.027 1615.76C319.344 1611.63 317.527 1607.48 315.77 1603.47L315.136 1602C314.811 1601.26 313.929 1599.43 313.554 1598.69C312.697 1596.97 311.835 1595.26 310.973 1593.56C301.018 1574.2 289.615 1556.23 277.113 1540.19L275.794 1538.54C275.449 1538.1 275.117 1537.7 274.864 1537.36C274.602 1537.07 274.326 1536.73 273.989 1536.35C273.246 1535.49 272.502 1534.63 272.24 1534.34C268.909 1530.59 265.448 1526.92 261.974 1523.4C254.391 1515.77 246.428 1508.58 238.274 1502.06L227.906 1493.92C213.651 1507.96 198.565 1520.47 182.698 1531.33C154.421 1550.69 82.9404 1590.68 30.187 1544.1C12.9369 1528.86 3.09067 1506.78 2.48476 1481.92C1.81994 1454.24 12.7725 1426.67 31.8138 1408.15C54.538 1386.04 86.7664 1373.75 125.006 1372.65C148.95 1371.96 173.269 1376.04 197.297 1384.75C199.503 1385.53 201.469 1386.25 202.877 1386.74C205.166 1383.32 207.441 1379.76 209.676 1376.17C214.647 1368.19 219.475 1359.8 224.038 1351.24C232.774 1334.82 240.996 1317.03 248.417 1298.32C248.844 1297.22 249.299 1296.11 249.753 1295C251.023 1291.87 252.357 1288.66 253.342 1285.45C253.371 1285.32 253.44 1285.22 253.514 1285.09C254.164 1283.09 254.87 1280.93 255.197 1279.98C258.459 1270.43 261.637 1260.42 264.617 1250.25C275.354 1213.67 284.048 1174.29 291.942 1126.34C299.729 1079.08 304.659 1034.53 307.011 990.144C311.852 899.154 306.921 804.969 291.881 702.219C288.864 681.541 285.554 660.495 282.37 640.154C270.891 566.972 258.998 491.321 257.548 415.909C255.391 301.338 275.459 205.48 317.239 130.999C342.424 86.0941 374.491 51.7046 409.964 31.5466C448.157 9.83953 493.971 0.1637 542.489 3.56217C566.519 5.24592 588.825 8.51081 610.683 13.4969C622.274 16.1588 633.069 24.1511 639.536 34.8557C645.231 44.2943 647.128 54.882 644.943 64.83C644.821 65.3864 644.704 65.9205 644.537 66.4671C638.062 90.7528 614.813 105.593 591.624 100.292C579.677 97.5517 569.048 95.4978 559.132 94.0204C554.185 93.2841 549.182 92.6988 544.495 92.1595C544.362 92.1302 544.223 92.1232 544.085 92.1161L542.38 92.0216C539.617 91.8581 536.848 91.7168 534.088 91.6472C523.421 91.358 513.033 91.7131 503.196 92.7489C502.529 92.8124 500.399 93.1613 498.149 93.5303C494.132 94.188 492.218 94.5142 491.244 94.487C487.038 95.4764 482.148 96.7121 477.279 98.279C472.612 99.7737 468.02 101.565 463.747 103.286C463.567 103.363 463.391 103.418 463.233 103.5L461.78 104.277C460.435 104.985 459.085 105.715 457.757 106.45C453.281 108.989 448.78 111.85 444.36 114.985C442.431 116.335 440.559 117.743 438.682 119.174C438.26 119.501 437.838 119.829 437.416 120.156C437.153 120.401 436.807 120.699 436.425 121.058C434.187 123.389 431.91 125.689 429.642 127.943C424.887 132.708 419.976 137.648 415.586 142.983C413.519 145.492 411.381 148.218 409.112 151.219C408.905 151.524 408.662 151.89 408.349 152.358C407.605 153.408 406.623 154.802 406.158 155.539C404.511 158.047 402.903 160.587 401.336 163.159C395.904 172.067 390.741 181.664 385.94 191.738C383.897 196.048 381.813 200.653 379.784 205.433C378.676 208.035 377.59 210.643 376.549 213.26L376.097 214.467C374.936 217.525 374.236 219.331 373.747 220.39C373.676 220.608 373.624 220.736 373.61 220.803C365.964 242.452 359.739 266.233 355.072 291.523C353.085 302.377 351.359 313.639 349.979 325.023C349.202 331.431 348.566 337.94 347.973 344.038C347.949 344.36 347.913 344.632 347.881 344.881C347.851 345.551 347.813 346.359 347.751 347.279C347.666 348.94 347.559 350.596 347.452 352.252C347.341 354.141 347.229 356.029 347.118 357.917C345.919 381.542 345.864 406.654 347.003 432.589C349.974 500.753 360.732 569.25 371.149 635.48C376.302 668.314 381.63 702.26 385.962 735.754C399.092 837.431 400.796 942.805 391.101 1048.9C381.33 1155.65 362.039 1246.47 332.141 1326.55C318.372 1363.44 301.558 1397.09 282.115 1427L297.121 1437.27C306.449 1443.66 315.022 1450.72 322.541 1458.23C377.608 1513.17 416.522 1593.78 435.11 1691.31C450.207 1770.54 450.564 1843.16 436.261 1908.3C430.309 1935.41 421.816 1961.24 410.784 1985.67C401.602 2006.02 389.275 2026.36 372.003 2049.68C365.968 2057.82 355.642 2063 343.671 2063.87C330.398 2064.83 317.146 2060.38 309.102 2052.29L309.08 2052.28ZM329.979 1325.77C359.811 1245.89 379.058 1155.26 388.807 1048.72C398.518 942.772 396.792 837.603 383.7 736.074C379.385 702.607 374.051 668.683 368.893 635.871C358.469 569.57 347.699 501.023 344.735 432.721C343.588 406.714 343.641 381.508 344.854 357.817C344.943 355.924 345.06 354.013 345.193 352.129C345.3 350.473 345.407 348.817 345.487 347.178C345.487 346.968 345.509 346.763 345.53 346.558C345.393 346.015 345.474 345.006 345.598 343.167C345.653 342.386 345.701 341.743 345.95 341.355C346.475 335.988 347.042 330.327 347.722 324.784C349.112 313.355 350.826 302.044 352.845 291.15C357.623 265.139 364.079 240.732 372.003 218.561C372.125 218.214 372.253 217.846 372.417 217.415C372.479 217.242 372.585 217.079 372.73 216.947C373.214 215.701 373.707 214.409 373.99 213.655L374.473 212.408C375.542 209.773 376.61 207.138 377.74 204.541C379.774 199.738 381.863 195.112 383.938 190.762C388.754 180.621 393.981 170.945 399.45 161.975C401.022 159.381 402.657 156.824 404.309 154.294C404.446 154.091 404.621 153.826 404.828 153.521C404.872 153.321 404.911 153.143 405.039 152.984C405.699 152.103 406.204 151.397 406.63 150.838C409.179 147.408 411.579 144.343 413.897 141.539C418.351 136.125 423.316 131.15 428.103 126.346C429.656 124.797 431.214 123.226 432.777 121.633C432.761 121.28 432.906 120.938 433.192 120.698C434.903 119.278 435.875 118.464 436.477 118.06C436.785 117.825 437.066 117.606 437.375 117.371C439.257 115.918 441.178 114.497 443.112 113.125C447.609 109.96 452.169 107.042 456.699 104.468C457.341 104.095 458 103.75 458.637 103.4C458.686 103.178 458.801 102.97 459.401 102.682L459.406 102.659C459.406 102.659 459.613 102.565 459.865 102.48C460.28 102.291 460.843 102.065 461.613 101.744C462.131 101.508 462.645 101.294 462.938 101.125L463.015 101.096C463.2 100.996 463.37 100.964 463.558 100.958C467.701 99.3018 472.135 97.5927 476.653 96.1354C482.498 94.2695 488.411 92.8383 493.101 91.7687C493.37 91.7111 493.689 91.6411 494.034 91.5538C494.106 91.5462 494.182 91.5163 494.254 91.5087C494.6 91.4213 494.951 91.5218 495.211 91.7188C496.108 91.5658 497.027 91.4176 497.874 91.2771C500.267 90.8929 502.325 90.5515 503.042 90.4756C512.973 89.4371 523.46 89.057 534.238 89.3707C536.208 89.4299 538.172 89.5114 540.132 89.6152C540.29 89.5332 540.505 89.5104 540.903 89.5045L540.913 89.46C541.091 89.4991 544.329 89.8368 545.298 89.8863C545.458 89.8982 545.587 89.9498 545.721 89.9791C550.18 90.4917 554.906 91.063 559.559 91.758C569.519 93.2452 580.193 95.3089 592.212 98.0413C614.198 103.079 636.268 88.9359 642.43 65.8645C645.05 56.0587 643.368 45.4483 637.673 36.0096C631.514 25.8159 621.284 18.2275 610.27 15.6926C588.529 10.7086 566.334 7.46818 542.421 5.78661C494.362 2.4191 448.993 11.9826 411.175 33.4687C376.072 53.4281 344.306 87.5104 319.315 132.062C299.303 167.745 284.294 208.376 274.349 253.666C263.643 302.426 258.814 356.607 259.933 415.78C261.372 491.025 273.23 566.623 284.706 639.71C287.891 660.052 291.2 681.097 294.24 701.78C309.29 804.696 314.236 899.024 309.384 990.175C307.012 1034.65 302.062 1079.29 294.283 1126.62C286.364 1174.68 277.678 1214.14 266.899 1250.8C263.91 1261.01 260.727 1271.05 257.454 1280.64C257.072 1281.74 256.184 1284.51 255.458 1286.76C255.078 1287.95 254.799 1288.8 254.568 1289.43C254.482 1289.71 254.426 1289.86 254.416 1289.91L254.371 1289.9C254.231 1290.22 254.133 1290.45 254.01 1290.59C253.347 1292.33 252.64 1294.07 251.942 1295.76C251.492 1296.85 251.038 1297.96 250.611 1299.06C243.153 1317.83 234.912 1335.71 226.116 1352.19C221.521 1360.79 216.684 1369.22 211.68 1377.24C209.27 1381.1 206.821 1384.92 204.361 1388.58C204.361 1388.58 204.357 1388.61 204.352 1388.63C204.283 1388.73 204.209 1388.85 204.108 1388.99C204.098 1389.04 204.066 1389.08 204.034 1389.12C204.034 1389.12 203.987 1389.22 203.923 1389.3C203.67 1389.71 203.32 1390.24 202.843 1390.93C202.397 1391.58 202.079 1392.07 201.786 1392.45C201.68 1392.61 201.611 1392.72 201.579 1392.75C201.429 1392.91 201.311 1393.02 201.215 1393.14C201.21 1393.16 201.178 1393.2 201.151 1393.22C189.585 1408.92 177.053 1423.29 163.883 1435.89C163.7 1436.09 144.665 1455 118.916 1469.01C107.317 1476.26 92.6775 1484.29 89.1649 1480.96C87.4879 1479.35 88.1427 1476.37 91.2956 1471.25C100.348 1456.58 129.622 1458.6 130.863 1458.69C131.046 1458.71 131.192 1458.78 131.333 1458.89C149.659 1446.81 162.127 1434.43 162.282 1434.26C175.371 1421.71 187.834 1407.44 199.326 1391.86C199.656 1391.42 200.441 1390.29 201.121 1389.32C201.217 1389.2 201.291 1389.08 201.387 1388.96C201.461 1388.83 201.557 1388.71 201.631 1388.59C200.263 1388.13 198.514 1387.49 196.592 1386.78C172.827 1378.16 148.797 1374.14 125.135 1374.83C87.4811 1375.91 55.7933 1387.97 33.4832 1409.69C14.8881 1427.76 4.18856 1454.72 4.85181 1481.76C5.43387 1505.98 15.0093 1527.5 31.7715 1542.3C83.3335 1587.82 153.659 1548.42 181.497 1529.36C245.184 1485.77 296.572 1415.34 330.043 1325.69L329.979 1325.77ZM127.196 1460.94C119.256 1460.88 99.7803 1461.82 93.162 1472.53C91.4662 1475.26 90.818 1476.93 90.5933 1477.96C90.3489 1479.07 90.6338 1479.37 90.6512 1479.39C92.5437 1481.18 103.979 1475.53 116.656 1467.72C116.688 1467.68 116.715 1467.67 116.77 1467.63C116.878 1467.56 116.982 1467.51 117.113 1467.45C120.436 1465.38 123.856 1463.19 127.196 1460.94ZM343.49 2061.61C354.799 2060.78 364.511 2055.96 370.151 2048.34C387.322 2025.16 399.575 2004.95 408.678 1984.74C445.987 1902.04 454.13 1803.45 432.85 1691.72C414.347 1594.65 375.645 1514.47 320.906 1459.83C313.462 1452.41 305.03 1445.45 295.804 1439.13L280.815 1428.89C265.303 1452.47 248.142 1473.69 229.528 1492.27L239.68 1500.22C247.896 1506.78 255.938 1514.03 263.579 1521.73C267.069 1525.27 270.571 1528.98 273.941 1532.75C274.129 1532.95 274.553 1533.47 275.056 1534.04C275.175 1534.14 275.311 1534.26 275.443 1534.41C275.443 1534.41 275.477 1534.46 275.517 1534.49C275.802 1534.79 276.112 1535.19 276.536 1535.7C276.959 1536.21 277.292 1536.61 277.522 1536.94C277.545 1536.95 277.562 1536.97 277.557 1537C277.666 1537.14 277.731 1537.27 277.795 1537.4L278.874 1538.75C291.468 1554.91 302.94 1572.99 312.96 1592.48C313.809 1594.13 314.649 1595.83 315.493 1597.51C315.493 1597.51 315.506 1597.56 315.528 1597.56C315.523 1597.59 315.563 1597.62 315.58 1597.65L317.165 1600.84C317.165 1600.84 317.249 1601.09 317.269 1601.21L317.826 1602.5C319.578 1606.53 321.418 1610.69 323.096 1614.83C326.826 1623.98 330.339 1633.48 333.528 1643.06C339.955 1662.35 345.53 1683.17 350.082 1704.93C350.415 1706.49 350.725 1708.05 351.031 1709.64C351.181 1710.44 351.353 1711.25 351.509 1712.03C351.764 1712.46 351.885 1713.18 352.088 1714.28C352.291 1715.37 352.428 1716.13 352.348 1716.6C352.576 1718 352.805 1719.4 353.033 1720.81C353.547 1723.88 354.062 1726.96 354.504 1730.04C356.151 1741.13 357.474 1752.32 358.425 1763.28C360.371 1785.33 360.93 1807.22 360.078 1828.31C359.985 1830.44 359.874 1832.54 359.758 1834.66L359.583 1837.79C359.643 1837.94 359.653 1838.11 359.636 1838.29C359.588 1838.93 359.498 1840.2 359.448 1841.17C359.415 1841.53 359.408 1841.88 359.372 1842.15C359.352 1842.24 359.365 1842.29 359.355 1842.34C359.311 1842.54 359.272 1842.71 359.215 1842.86C358.866 1846.47 358.453 1850.16 357.99 1853.86C356.679 1864.4 354.966 1874.75 352.939 1884.62C350.559 1896.2 347.669 1907.56 344.342 1918.35C344.124 1919.03 343.545 1920.82 342.898 1922.7C342.647 1923.42 342.405 1924.2 342.145 1924.96C342.212 1925.19 342.203 1925.44 342.127 1925.68L342.117 1925.73C341.906 1926.26 341.726 1926.76 341.567 1927.17C339.949 1931.46 338.215 1935.74 336.397 1939.98C331.78 1950.71 326.602 1961.12 320.96 1970.98C318.461 1975.35 315.736 1979.79 312.905 1984.19C312.27 1985.17 311.64 1986.13 310.982 1987.1C310.948 1987.26 310.847 1987.4 310.769 1987.55C310.769 1987.55 310.754 1987.61 310.668 1987.69C310.525 1987.91 310.36 1988.13 310.19 1988.37C309.68 1989.1 308.973 1990.09 308.606 1990.59C308.505 1990.73 308.387 1990.85 308.256 1990.91C293.267 2011.16 294.17 2034.03 310.613 2050.61C318.218 2058.26 330.778 2062.46 343.411 2061.55L343.49 2061.61Z" stroke="black" stroke-width="4" mask="url(#path-1-outside-1_260_2)"/>
</svg>
